<?xml version="1.0" encoding="iso-8859-1"?>
<!-- Uploaded to: SVG Repo, www.svgrepo.com, Generator: SVG Repo Mixer Tools -->
<svg height="800px" width="800px" version="1.1" id="Layer_1" xmlns="http://www.w3.org/2000/svg" xmlns:xlink="http://www.w3.org/1999/xlink" 
	 viewBox="0 0 511.45 511.45" xml:space="preserve">
<g transform="translate(1 1)">
	<path style="fill:#E2E3E5;" d="M502.842,225.679c14.769-14.769,6.892-40.369-13.785-43.323l-119.138-17.723
		c-7.877-0.985-15.754-6.892-18.708-13.785L298.042,42.54c-8.862-18.708-36.431-18.708-45.292,0L199.58,150.848
		c-3.938,7.877-10.831,12.8-18.708,13.785L60.749,182.356c-20.677,2.954-29.538,28.554-13.785,43.323l85.662,83.692
		c5.908,5.908,8.862,13.785,6.892,22.646l-20.677,118.154c-1.969,14.769,6.892,26.585,19.692,29.538
		c0.985-2.954,2.954-5.908,6.892-6.892c41.354-9.846,73.846-35.446,107.323-61.046c6.892-5.908,13.785,0.985,14.769,7.877
		c5.908-1.969,12.8-0.985,18.708,1.969l106.338,56.123c18.708,9.846,40.369-5.908,36.431-26.585l-20.677-118.154
		c-0.985-7.877,0.985-16.738,6.892-22.646L502.842,225.679z"/>
	<path style="fill:#CCCCCC;" d="M267.519,43.525l53.169,108.308c3.938,7.877,10.831,12.8,18.708,13.785l119.138,17.723
		c20.677,2.954,29.538,28.554,13.785,43.323l-85.662,83.692c-5.908,5.908-8.862,13.785-6.892,22.646l20.677,118.154
		c3.938,20.677-18.708,36.431-36.431,26.585l-106.338-56.123c-7.877-3.938-15.754-3.938-23.631,0L126.719,477.74
		c-18.708,9.846-40.369-5.908-36.431-26.585l20.677-118.154c0.985-7.877-0.985-16.738-6.892-22.646l-85.662-83.692
		c-14.769-14.769-6.892-40.369,13.785-43.323l119.138-17.723c7.877-0.985,15.754-5.908,18.708-13.785l53.169-108.308
		C231.088,24.817,257.673,24.817,267.519,43.525"/>
	<path style="fill:#E2E3E5;" d="M244.873,43.525l37.415,108.308c3.938,7.877,10.831,12.8,18.708,13.785l119.138,17.723
		c20.677,2.954,29.538,28.554,13.785,43.323l-85.662,83.692c-5.908,5.908-8.862,13.785-6.892,22.646l20.677,118.154
		c3.938,20.677-8.862,18.708-27.569,8.862l-68.923-38.4c-7.877-3.938-16.738-3.938-23.631,0L135.58,477.74
		c-18.708,9.846-40.369-5.908-36.431-26.585l17.723-119.138c0.985-7.877-0.985-16.738-6.892-22.646l-85.662-83.692
		c-14.769-14.769-6.892-40.369,13.785-43.323l98.462-16.738c7.877-0.985,15.754-5.908,18.708-13.785L225.18,43.525
		C234.042,24.817,235.026,24.817,244.873,43.525"/>
	<path style="fill:#FFFFFF;" d="M16.442,225.679c-14.769-14.769-6.892-40.369,13.785-43.323l119.138-17.723
		c7.877-0.985,15.754-6.892,18.708-13.785L221.242,42.54c5.908-11.815,18.708-16.738,30.523-12.8
		c-1.969,1.969-3.938,5.908-7.877,12.8l-37.415,108.308c-3.938,7.877-10.831,12.8-18.708,13.785L69.611,182.356
		c-20.677,2.954-29.538,28.554-13.785,43.323l85.662,83.692c5.908,5.908,8.862,13.785,6.892,22.646l-20.677,118.154
		c-2.954,14.769,2.954,18.708,13.785,14.769c0,0.985,0.985,1.969,0.985,2.954l-15.754,9.846
		c-18.708,9.846-40.369-5.908-36.431-26.585l20.677-118.154c0.985-7.877-0.985-16.738-6.892-22.646L16.442,225.679z"/>
	<path style="fill:#B6B6B6;" d="M374.842,490.54c-5.908,0-10.831-0.985-16.738-3.938l-106.338-56.123
		c-4.923-1.969-9.846-1.969-14.769,0l-106.338,56.123c-11.815,5.908-26.585,4.923-37.415-2.954s-15.754-20.677-13.785-34.462
		l20.677-118.154c0.985-4.923-0.985-9.846-4.923-13.785L9.549,233.556c-9.846-9.846-12.8-23.631-8.862-36.431
		c3.938-12.8,14.769-21.662,28.554-23.631l119.138-17.723c4.923-0.985,9.846-3.938,11.815-8.862l53.169-108.308
		c5.908-11.815,17.723-19.692,31.508-19.692c13.785,0,25.6,7.877,31.508,19.692l53.169,108.308
		c1.969,4.923,6.892,7.877,11.815,8.862l119.138,17.723c13.785,1.969,24.615,10.831,28.554,23.631s0.985,26.585-8.862,36.431
		l-85.662,83.692c-3.938,3.938-4.923,8.862-4.923,13.785l20.677,118.154c1.969,13.785-2.954,26.585-13.785,34.462
		C389.611,488.571,381.734,490.54,374.842,490.54z M244.873,408.817c5.908,0,10.831,0.985,16.738,3.938l106.338,56.123
		c4.923,2.954,11.815,1.969,16.738-0.985c4.923-3.938,6.892-8.862,5.908-14.769l-20.677-118.154
		c-1.969-11.815,1.969-22.646,9.846-31.508l85.662-83.692c3.938-3.938,5.908-9.846,3.938-15.754
		c-1.969-5.908-6.892-9.846-12.8-10.831l-118.154-18.708c-11.815-1.969-21.662-8.862-26.585-19.692L258.657,46.479l0,0
		c-2.954-5.908-7.877-8.862-13.785-8.862s-10.831,2.954-13.785,8.862l-53.169,108.308c-4.923,10.831-14.769,17.723-26.585,19.692
		L32.196,192.202c-5.908,0.985-10.831,4.923-12.8,10.831c-1.969,5.908,0,11.815,3.938,15.754l85.662,83.692
		c7.877,7.877,11.815,19.692,9.846,31.508L98.165,452.14c-0.985,5.908,0.985,11.815,5.908,14.769
		c4.923,3.938,10.831,3.938,16.738,0.985l106.338-56.123C233.057,410.786,238.965,408.817,244.873,408.817z"/>
</g>
</svg>